<svg width="22" height="22" viewBox="0 0 22 22" fill="none" xmlns="http://www.w3.org/2000/svg">
<path fill-rule="evenodd" clip-rule="evenodd" d="M3.54776 4.99415C3.07567 5.64282 3.10867 6.47381 3.6156 7.58699C3.77235 7.93239 3.62018 8.33918 3.27459 8.49677C2.92808 8.65344 2.52199 8.50227 2.36432 8.15594C1.64288 6.57367 1.65663 5.25252 2.40465 4.23279C2.68332 3.76644 4.43512 1.7389 5.93941 1.83693C6.41242 1.87633 6.8451 2.09622 7.25119 2.49201C7.68387 2.91438 9.50075 5.12425 9.6465 5.82331C9.80312 6.57485 9.46559 7.16176 9.21905 7.59044L9.21841 7.59157C8.97548 8.01393 8.89115 8.19442 8.97457 8.42256C9.58783 9.92237 10.5357 11.1482 11.7833 12.0388C12.0922 12.2605 12.1628 12.6893 11.9419 12.998C11.8081 13.1849 11.5972 13.2857 11.3827 13.2857C11.2434 13.2857 11.104 13.2436 10.983 13.1575C9.52183 12.1121 8.41447 10.6856 7.6912 8.91639C7.37311 8.04142 7.75079 7.38542 8.02671 6.90625C8.23388 6.5471 8.34847 6.33271 8.29988 6.10366C8.17155 5.77292 6.83135 4.00374 6.2905 3.47693C6.12366 3.31293 5.96691 3.21673 5.85049 3.20756C5.19414 3.19199 3.8521 4.48932 3.54776 4.99415ZM16.1769 12.3508C16.8791 12.4964 19.0874 14.3123 19.51 14.7439C19.9078 15.1507 20.1278 15.584 20.1654 16.0302C20.225 17.7188 17.9635 19.4833 17.7041 19.6318C17.2109 19.9873 16.6325 20.1668 15.9817 20.1668C15.3345 20.1668 14.6158 19.9891 13.8375 19.6263C10.8445 18.3839 6.31791 14.3554 3.77134 10.6585C3.55592 10.3461 3.63476 9.91825 3.94735 9.70294C4.26086 9.49039 4.68895 9.56735 4.90346 9.87977C7.28227 13.3329 11.6274 17.2203 14.3921 18.3693C15.5105 18.8887 16.3428 18.9208 16.9625 18.4764C17.4456 18.1842 18.8179 16.8209 18.7931 16.1117C18.7849 16.0284 18.6896 15.8717 18.5273 15.7059C17.9993 15.1653 16.2273 13.8249 15.857 13.6857C15.5646 13.6234 15.2602 13.8011 14.7964 14.0934L14.5617 14.239C14.2363 14.4342 13.8137 14.3307 13.6175 14.0045C13.4223 13.6802 13.5268 13.2578 13.8522 13.0617L14.0639 12.9307C14.5773 12.6073 15.2859 12.1657 16.1769 12.3508Z" fill="white"/>
</svg>
