<svg width="20" height="18" viewBox="0 0 20 18" fill="none" xmlns="http://www.w3.org/2000/svg">
<path fill-rule="evenodd" clip-rule="evenodd" d="M19.1666 7.44802C19.1666 7.80892 18.8762 8.10149 18.5179 8.10149L18.5098 8.08515C18.3378 8.08515 18.1728 8.0163 18.0511 7.89375C17.9295 7.7712 17.8611 7.60499 17.8611 7.43168V6.10842C17.8391 3.88458 16.055 2.08723 13.8474 2.0651H6.15243C3.94488 2.08723 2.16069 3.88458 2.13872 6.10842V11.8916C2.16069 14.1154 3.94488 15.9128 6.15243 15.9349H13.8474C16.055 15.9128 17.8391 14.1154 17.8611 11.8916C17.8982 11.5567 18.1793 11.3034 18.5139 11.3034C18.8484 11.3034 19.1295 11.5567 19.1666 11.8916C19.1577 14.8472 16.7814 17.241 13.8474 17.25H6.15243C3.21658 17.2455 0.837717 14.8491 0.833252 11.8916V6.10842C0.833252 3.14904 3.21473 0.75 6.15243 0.75H13.8474C16.7814 0.75897 19.1577 3.15277 19.1666 6.10842V7.44802ZM10.677 8.86931L14.4474 5.83069H14.4555C14.7363 5.60587 15.1442 5.6495 15.3718 5.92871C15.4802 6.06483 15.5301 6.239 15.5103 6.41238C15.4905 6.58577 15.4027 6.74397 15.2664 6.85173L11.4959 9.89851C10.5372 10.6757 9.17071 10.6757 8.21199 9.89851L4.43343 6.85173C4.15626 6.62243 4.11295 6.21154 4.33613 5.92871C4.44282 5.79316 4.59907 5.70644 4.76982 5.68802C4.94056 5.66959 5.1115 5.72099 5.24428 5.83069L9.05528 8.86931C9.53132 9.24557 10.2009 9.24557 10.677 8.86931Z" fill="white"/>
</svg>
