<svg width="22" height="22" viewBox="0 0 22 22" fill="none" xmlns="http://www.w3.org/2000/svg">
<path fill-rule="evenodd" clip-rule="evenodd" d="M10.9999 1.8335H11.0304C15.3263 1.85038 18.8084 5.3553 18.7915 9.64562V9.73083C18.7335 12.7968 16.8902 15.3411 15.3545 16.9352C14.9174 17.391 14.4522 17.8283 13.9724 18.2367C13.6851 18.4819 13.2536 18.4481 13.0081 18.1611C12.7626 17.8734 12.7972 17.4425 13.0846 17.1973C13.5289 16.8187 13.9612 16.4119 14.3676 15.9883C15.7344 14.5702 17.3732 12.3282 17.4231 9.70591C17.4368 6.10372 14.5673 3.21376 11.0248 3.19929H10.9999C7.46949 3.19929 4.5903 6.06111 4.57661 9.58935C4.63698 11.3322 5.22618 12.989 6.28143 14.3789C7.51295 16.0188 9.38117 17.7552 11.1568 18.9112C11.474 19.117 11.5633 19.5398 11.3564 19.8565C11.226 20.0575 11.0063 20.1668 10.7825 20.1668C10.6545 20.1668 10.5258 20.1315 10.4099 20.0559C8.50864 18.8187 6.50761 16.9585 5.18835 15.2021C3.96407 13.5887 3.27908 11.6634 3.20825 9.63678C3.22516 5.30386 6.71769 1.8335 10.9999 1.8335ZM9.40049 9.72979C9.40049 10.6084 10.1169 11.3247 10.9974 11.3247C11.878 11.3247 12.5944 10.6084 12.5944 9.72979C12.5944 8.85034 11.878 8.13408 10.9974 8.13408C10.6199 8.13408 10.3133 7.82861 10.3133 7.45159C10.3133 7.07376 10.6199 6.76829 10.9974 6.76829C12.6322 6.76829 13.9628 8.0963 13.9628 9.72979C13.9628 11.3625 12.6322 12.6905 10.9974 12.6905C9.36265 12.6905 8.03213 11.3625 8.03213 9.72979C8.03213 9.35196 8.3388 9.04649 8.71631 9.04649C9.09381 9.04649 9.40049 9.35196 9.40049 9.72979Z" fill="white"/>
</svg>
